<?xml version="1.0" encoding="UTF-8"?>
<svg id="Camada_2" data-name="Camada 2" xmlns="http://www.w3.org/2000/svg" viewBox="0 0 572.87 306.34">
  <defs>
    <style>
      .cls-1 {
        fill: #42b492;
      }

      .cls-2 {
        fill: #02634c;
      }
    </style>
  </defs>
  <g id="Camada_1-2" data-name="Camada 1">
    <g>
      <path class="cls-2" d="M97.98,185.72L0,123.23v-29L97.98,31.75v38.49l-62.99,37.99v1l62.99,37.99v38.49Z"/>
      <path class="cls-2" d="M474.88,185.72v-38.49l62.99-37.99v-1l-62.99-37.99V31.75l97.99,62.49v29l-97.99,62.49Z"/>
      <path class="cls-1" d="M167.83,191.47c-9,0-18.54-1.92-28.62-5.75-10.08-3.83-18.96-10.83-26.62-21l24.25-26.75c4.66,5.17,9.5,9.21,14.5,12.12,5,2.92,10,4.37,15,4.37,7,0,12.37-1.79,16.12-5.37,3.75-3.58,5.62-10.46,5.62-20.62V61.99h-61.74V26h104.73v105.98c0,10.83-2.04,20.75-6.12,29.75-4.08,9-10.71,16.21-19.87,21.62-9.17,5.41-21.58,8.12-37.24,8.12Z"/>
      <path class="cls-2" d="M231.07,188.47V26h111.23v35.99h-68.24v31h58.49v35.99h-58.49v59.49h-42.99Z"/>
      <path class="cls-1" d="M342.3,217.47L424.79,0h35.49l-82.49,217.47h-35.49Z"/>
      <g>
        <path class="cls-1" d="M7.7,263.14c-1.3,0-2.65-.29-4.05-.86-1.4-.58-2.62-1.58-3.65-3.02l3.06-3.28c.67.84,1.39,1.48,2.16,1.93.77.44,1.54.67,2.3.67,1.2,0,2.11-.31,2.72-.94.61-.62.92-1.74.92-3.35v-10.62H1.98v-4.43h14.47v15.48c0,1.54-.28,2.94-.85,4.21-.56,1.27-1.48,2.29-2.74,3.06-1.26.77-2.98,1.15-5.17,1.15Z"/>
        <path class="cls-1" d="M27.5,263.14c-2.04,0-3.52-.65-4.43-1.94-.91-1.3-1.37-3.07-1.37-5.33v-11.02h5.29v10.33c0,1.2.19,2.08.56,2.63.37.55,1.05.83,2.03.83.67,0,1.27-.14,1.8-.43.53-.29,1.09-.83,1.69-1.62v-11.74h5.29v17.86h-4.32l-.4-2.56h-.14c-.79.89-1.67,1.61-2.63,2.16-.96.55-2.09.83-3.38.83Z"/>
        <path class="cls-1" d="M49.14,263.14c-1.2,0-2.24-.24-3.11-.72-.88-.48-1.55-1.13-2.04-1.94-.48-.82-.72-1.73-.72-2.74,0-1.99.91-3.52,2.72-4.57,1.81-1.06,4.83-1.7,9.05-1.94-.07-.55-.25-1.02-.54-1.4-.29-.38-.7-.68-1.24-.88-.54-.2-1.22-.31-2.03-.31-.58,0-1.15.07-1.73.2s-1.17.32-1.78.58-1.25.55-1.93.88l-1.87-3.46c.82-.48,1.67-.9,2.57-1.26.9-.36,1.84-.64,2.81-.85.97-.2,1.96-.31,2.97-.31,1.68,0,3.12.29,4.32.88,1.2.59,2.12,1.48,2.77,2.66.65,1.19.97,2.69.97,4.52v10.22h-4.32l-.4-2.02h-.14c-.89.67-1.87,1.25-2.95,1.73s-2.21.72-3.38.72ZM50.83,259.03c.79,0,1.54-.16,2.23-.49s1.36-.73,1.98-1.21v-2.95c-1.75.1-3.12.28-4.09.54-.97.26-1.65.6-2.04,1.01-.38.41-.57.88-.57,1.4,0,.36.1.67.3.94s.49.46.87.58c.37.12.81.18,1.31.18Z"/>
        <path class="cls-1" d="M65.27,262.7v-17.86h4.32l.4,2.38h.14c.77-.77,1.65-1.43,2.65-1.98,1-.55,2.17-.83,3.51-.83,2.02,0,3.49.65,4.43,1.94.94,1.3,1.4,3.07,1.4,5.33v11.02h-5.29v-10.33c0-1.2-.2-2.08-.59-2.63-.4-.55-1.07-.83-2.03-.83-.72,0-1.35.16-1.89.49s-1.12.79-1.75,1.39v11.92h-5.29Z"/>
        <path class="cls-1" d="M109.65,262.7v-23.47h15.59v4.46h-10.3v5.44h8.78v4.46h-8.78v9.11h-5.29Z"/>
        <path class="cls-1" d="M139.35,263.14c-1.85,0-3.52-.37-5.02-1.1-1.5-.73-2.69-1.8-3.56-3.2s-1.31-3.09-1.31-5.06.44-3.62,1.33-5.02c.89-1.4,2.04-2.48,3.46-3.22s2.92-1.12,4.5-1.12c1.85,0,3.4.38,4.64,1.13,1.25.76,2.19,1.78,2.83,3.06.64,1.28.95,2.74.95,4.37,0,.48-.03.94-.09,1.39-.06.44-.11.77-.16.99h-13.54v-3.56h9.97l-.83,1.01c0-1.44-.31-2.53-.92-3.26-.61-.73-1.51-1.1-2.68-1.1-.86,0-1.62.19-2.27.58-.65.38-1.15.97-1.51,1.76s-.54,1.79-.54,2.99.22,2.23.65,3.01c.43.78,1.06,1.36,1.87,1.75.82.38,1.8.58,2.95.58.82,0,1.59-.11,2.32-.32s1.49-.53,2.29-.94l1.76,3.2c-1.03.65-2.17,1.16-3.42,1.53s-2.47.56-3.67.56Z"/>
        <path class="cls-1" d="M153.25,262.7v-17.86h4.32l.43,3.89h.11c.89-1.46,1.96-2.55,3.22-3.26s2.6-1.06,4.01-1.06c.79,0,1.43.06,1.93.18.49.12,1,.3,1.53.54l-1.08,4.43c-.55-.17-1.05-.29-1.49-.38-.44-.08-1-.13-1.67-.13-1.1,0-2.19.32-3.26.97-1.07.65-1.99,1.78-2.75,3.38v9.29h-5.29Z"/>
        <path class="cls-1" d="M173.27,262.7v-17.86h4.32l.4,2.38h.14c.77-.77,1.65-1.43,2.65-1.98,1-.55,2.17-.83,3.51-.83,2.02,0,3.49.65,4.43,1.94.94,1.3,1.4,3.07,1.4,5.33v11.02h-5.29v-10.33c0-1.2-.2-2.08-.59-2.63-.4-.55-1.07-.83-2.03-.83-.72,0-1.35.16-1.89.49s-1.12.79-1.75,1.39v11.92h-5.29Z"/>
        <path class="cls-1" d="M200.34,263.14c-1.2,0-2.24-.24-3.11-.72-.88-.48-1.55-1.13-2.03-1.94-.48-.82-.72-1.73-.72-2.74,0-1.99.91-3.52,2.72-4.57,1.81-1.06,4.83-1.7,9.05-1.94-.07-.55-.25-1.02-.54-1.4s-.7-.68-1.24-.88c-.54-.2-1.22-.31-2.03-.31-.58,0-1.15.07-1.73.2s-1.17.32-1.78.58c-.61.25-1.25.55-1.93.88l-1.87-3.46c.82-.48,1.67-.9,2.57-1.26.9-.36,1.84-.64,2.81-.85.97-.2,1.96-.31,2.97-.31,1.68,0,3.12.29,4.32.88,1.2.59,2.12,1.48,2.77,2.66.65,1.19.97,2.69.97,4.52v10.22h-4.32l-.4-2.02h-.14c-.89.67-1.87,1.25-2.95,1.73s-2.21.72-3.38.72ZM202.03,259.03c.79,0,1.54-.16,2.23-.49.7-.32,1.36-.73,1.98-1.21v-2.95c-1.75.1-3.11.28-4.09.54-.97.26-1.65.6-2.03,1.01s-.58.88-.58,1.4c0,.36.1.67.31.94.2.26.49.46.86.58.37.12.81.18,1.31.18Z"/>
        <path class="cls-1" d="M216.46,262.7v-17.86h4.32l.4,2.38h.14c.77-.77,1.65-1.43,2.65-1.98,1-.55,2.17-.83,3.51-.83,2.02,0,3.49.65,4.43,1.94.94,1.3,1.4,3.07,1.4,5.33v11.02h-5.29v-10.33c0-1.2-.2-2.08-.59-2.63-.4-.55-1.07-.83-2.03-.83-.72,0-1.35.16-1.89.49s-1.12.79-1.75,1.39v11.92h-5.29Z"/>
        <path class="cls-1" d="M244.69,263.14c-2.26,0-4.07-.83-5.45-2.5-1.38-1.67-2.07-3.95-2.07-6.86,0-1.94.37-3.61,1.1-5,.73-1.39,1.69-2.47,2.86-3.22,1.17-.76,2.4-1.13,3.67-1.13.98,0,1.84.17,2.56.5.72.34,1.37.8,1.94,1.4h.14l-.25-2.77v-6.08h5.29v25.24h-4.32l-.4-1.84h-.11c-.65.65-1.41,1.19-2.29,1.62-.88.43-1.77.65-2.68.65ZM246.06,258.82c.6,0,1.16-.13,1.67-.38.52-.25,1-.68,1.46-1.28v-7.24c-.48-.43-.97-.74-1.46-.92-.49-.18-1-.27-1.53-.27-.65,0-1.25.18-1.8.54-.55.36-.99.91-1.31,1.64-.32.73-.49,1.66-.49,2.79,0,1.75.3,3.04.9,3.87.6.83,1.45,1.24,2.56,1.24Z"/>
        <path class="cls-1" d="M267.87,263.14c-1.56,0-3.04-.37-4.43-1.1-1.39-.73-2.52-1.8-3.38-3.2-.86-1.4-1.3-3.09-1.3-5.06s.43-3.65,1.3-5.06c.86-1.4,1.99-2.47,3.38-3.2,1.39-.73,2.87-1.1,4.43-1.1s3.04.37,4.43,1.1c1.39.73,2.52,1.8,3.38,3.2.86,1.4,1.3,3.09,1.3,5.06s-.43,3.65-1.3,5.06c-.86,1.4-1.99,2.47-3.38,3.2s-2.87,1.1-4.43,1.1ZM267.87,258.85c.82,0,1.49-.2,2.03-.61s.95-1,1.22-1.76c.28-.77.41-1.67.41-2.7s-.14-1.93-.41-2.7c-.28-.77-.68-1.36-1.22-1.76s-1.22-.61-2.03-.61-1.49.2-2.03.61-.95,1-1.22,1.76c-.28.77-.41,1.67-.41,2.7s.14,1.93.41,2.7c.28.77.68,1.36,1.22,1.76s1.22.61,2.03.61Z"/>
      </g>
      <g>
        <path class="cls-1" d="M0,305.9v-23.62h5.83c2.38,0,4.37.45,5.99,1.35,1.62.9,2.85,2.23,3.69,3.98.84,1.75,1.26,3.88,1.26,6.37s-.41,4.67-1.24,6.44-2.05,3.13-3.65,4.07c-1.61.94-3.58,1.4-5.9,1.4H0ZM2.99,303.46h2.63c1.8,0,3.29-.38,4.48-1.13s2.08-1.84,2.68-3.24c.6-1.4.9-3.1.9-5.09s-.3-3.65-.9-5.04c-.6-1.39-1.49-2.44-2.68-3.15-1.19-.71-2.68-1.06-4.48-1.06h-2.63v18.72Z"/>
        <path class="cls-1" d="M30.35,306.34c-1.75,0-3.34-.36-4.77-1.08-1.43-.72-2.56-1.77-3.4-3.15-.84-1.38-1.26-3.04-1.26-4.99s.42-3.53,1.26-4.9c.84-1.37,1.94-2.42,3.29-3.15,1.36-.73,2.81-1.1,4.37-1.1,1.68,0,3.11.34,4.3,1.03,1.19.68,2.1,1.64,2.74,2.86.64,1.22.95,2.66.95,4.32,0,.34-.01.66-.04.97-.02.31-.06.59-.11.83h-14.8v-2.3h13.03l-.76.83c0-2.06-.47-3.61-1.42-4.64-.95-1.03-2.23-1.55-3.83-1.55-1.08,0-2.08.26-3.01.79-.92.53-1.66,1.3-2.21,2.3-.55,1.01-.83,2.24-.83,3.71s.3,2.77.9,3.78c.6,1.01,1.42,1.77,2.45,2.29,1.03.52,2.2.77,3.49.77,1.06,0,2.01-.15,2.86-.45.85-.3,1.67-.7,2.47-1.21l1.08,1.94c-.86.58-1.85,1.07-2.97,1.48-1.12.41-2.38.61-3.8.61Z"/>
        <path class="cls-1" d="M51.23,306.34c-1.7,0-3.3-.28-4.79-.83-1.49-.55-2.76-1.19-3.82-1.91l1.37-1.94c1.01.72,2.12,1.3,3.35,1.73,1.22.43,2.64.65,4.25.65,1.49,0,2.6-.28,3.33-.83.73-.55,1.1-1.19,1.1-1.91,0-.33-.07-.65-.2-.94-.13-.29-.38-.56-.76-.83-.37-.26-.92-.52-1.64-.76-.72-.24-1.68-.48-2.88-.72-2.28-.48-3.99-1.13-5.13-1.94-1.14-.82-1.71-1.87-1.71-3.17,0-1.42.61-2.6,1.84-3.55,1.22-.95,3.04-1.42,5.44-1.42,1.34,0,2.64.22,3.89.67,1.25.44,2.3.97,3.17,1.57l-1.44,1.91c-.79-.58-1.69-1.03-2.7-1.35-1.01-.32-2.06-.49-3.17-.49-1.01,0-1.81.11-2.39.34-.59.23-1.01.53-1.26.92-.25.38-.38.8-.38,1.26,0,.74.4,1.33,1.21,1.75.8.42,2.09.81,3.87,1.17,1.94.41,3.44.86,4.48,1.37s1.76,1.08,2.16,1.73c.4.65.59,1.42.59,2.3,0,.96-.3,1.83-.9,2.61-.6.78-1.48,1.41-2.63,1.89-1.15.48-2.57.72-4.25.72Z"/>
        <path class="cls-1" d="M73.55,306.34c-1.75,0-3.34-.36-4.77-1.08-1.43-.72-2.56-1.77-3.4-3.15-.84-1.38-1.26-3.04-1.26-4.99s.42-3.53,1.26-4.9c.84-1.37,1.94-2.42,3.29-3.15,1.36-.73,2.81-1.1,4.37-1.1,1.68,0,3.11.34,4.3,1.03,1.19.68,2.1,1.64,2.74,2.86.64,1.22.95,2.66.95,4.32,0,.34-.01.66-.04.97-.02.31-.06.59-.11.83h-14.8v-2.3h13.03l-.76.83c0-2.06-.47-3.61-1.42-4.64-.95-1.03-2.23-1.55-3.83-1.55-1.08,0-2.08.26-3.01.79-.92.53-1.66,1.3-2.21,2.3-.55,1.01-.83,2.24-.83,3.71s.3,2.77.9,3.78c.6,1.01,1.42,1.77,2.45,2.29,1.03.52,2.2.77,3.49.77,1.06,0,2.01-.15,2.86-.45.85-.3,1.67-.7,2.47-1.21l1.08,1.94c-.86.58-1.85,1.07-2.97,1.48-1.12.41-2.38.61-3.8.61Z"/>
        <path class="cls-1" d="M86.62,305.9v-17.5h2.45l.25,2.99h.14c.91-.98,1.9-1.8,2.95-2.45,1.06-.65,2.27-.97,3.64-.97,2.06,0,3.59.6,4.57,1.8.98,1.2,1.48,2.95,1.48,5.26v10.87h-2.95v-10.48c0-1.66-.31-2.89-.94-3.69-.62-.8-1.66-1.21-3.1-1.21-1.03,0-1.96.26-2.77.79-.82.53-1.74,1.32-2.77,2.38v12.2h-2.95Z"/>
        <path class="cls-1" d="M114.08,305.9l-7.38-17.5h2.99l4.03,9.94c.36.86.7,1.73,1.03,2.59.32.86.64,1.72.95,2.56h.14c.31-.84.62-1.69.94-2.56.31-.86.64-1.73.97-2.59l4.03-9.94h2.84l-7.24,17.5h-3.31Z"/>
        <path class="cls-1" d="M137.27,306.34c-1.54,0-2.96-.36-4.27-1.08-1.31-.72-2.36-1.76-3.17-3.13-.8-1.37-1.21-3.01-1.21-4.93s.4-3.64,1.21-5c.8-1.37,1.86-2.41,3.17-3.13,1.31-.72,2.73-1.08,4.27-1.08s2.96.36,4.27,1.08c1.31.72,2.36,1.76,3.17,3.13.8,1.37,1.21,3.04,1.21,5s-.4,3.56-1.21,4.93c-.8,1.37-1.86,2.41-3.17,3.13-1.31.72-2.73,1.08-4.27,1.08ZM137.27,303.89c1.13,0,2.11-.28,2.95-.85.84-.56,1.49-1.35,1.94-2.36.46-1.01.68-2.17.68-3.49s-.23-2.53-.68-3.55c-.46-1.02-1.1-1.81-1.94-2.38-.84-.56-1.82-.85-2.95-.85s-2.11.28-2.93.85c-.83.56-1.48,1.36-1.94,2.38-.47,1.02-.7,2.2-.7,3.55s.23,2.48.7,3.49,1.12,1.79,1.94,2.36c.83.56,1.81.85,2.93.85Z"/>
        <path class="cls-1" d="M162.68,306.34c-1.85,0-3.26-.53-4.25-1.6-.98-1.07-1.48-2.63-1.48-4.7v-17.35h-5.98v-2.41h8.93v19.98c0,1.27.31,2.2.94,2.77.62.58,1.45.86,2.48.86.5,0,1.02-.07,1.55-.2.53-.13,1.12-.34,1.76-.63l.76,2.23c-.79.29-1.54.54-2.23.74-.7.2-1.52.31-2.48.31Z"/>
        <path class="cls-1" d="M178.88,305.9l-7.38-17.5h2.99l4.03,9.94c.36.86.7,1.73,1.03,2.59s.64,1.72.95,2.56h.14c.31-.84.62-1.69.94-2.56.31-.86.64-1.73.97-2.59l4.03-9.94h2.84l-7.24,17.5h-3.31Z"/>
        <path class="cls-1" d="M203.15,306.34c-1.75,0-3.34-.36-4.77-1.08-1.43-.72-2.56-1.77-3.4-3.15-.84-1.38-1.26-3.04-1.26-4.99s.42-3.53,1.26-4.9c.84-1.37,1.94-2.42,3.29-3.15,1.36-.73,2.81-1.1,4.37-1.1,1.68,0,3.11.34,4.3,1.03,1.19.68,2.1,1.64,2.74,2.86.64,1.22.95,2.66.95,4.32,0,.34-.01.66-.04.97-.02.31-.06.59-.11.83h-14.8v-2.3h13.03l-.76.83c0-2.06-.47-3.61-1.42-4.64-.95-1.03-2.23-1.55-3.83-1.55-1.08,0-2.08.26-3.01.79-.92.53-1.66,1.3-2.21,2.3-.55,1.01-.83,2.24-.83,3.71s.3,2.77.9,3.78,1.42,1.77,2.45,2.29c1.03.52,2.2.77,3.49.77,1.06,0,2.01-.15,2.86-.45.85-.3,1.67-.7,2.47-1.21l1.08,1.94c-.86.58-1.85,1.07-2.97,1.48-1.12.41-2.38.61-3.8.61Z"/>
        <path class="cls-1" d="M222.62,306.34c-2.28,0-4.12-.8-5.51-2.39-1.39-1.6-2.09-3.85-2.09-6.75,0-1.9.38-3.53,1.13-4.91s1.74-2.44,2.95-3.19,2.5-1.12,3.87-1.12c1.03,0,1.97.2,2.83.59.85.4,1.65.95,2.39,1.67h.11l-.14-3.24v-6.73h2.95v25.63h-2.45l-.25-2.3h-.11c-.7.74-1.54,1.39-2.54,1.93-1,.54-2.05.81-3.15.81ZM223.23,303.85c.86,0,1.7-.22,2.52-.67.82-.44,1.62-1.1,2.41-1.96v-8.71c-.79-.74-1.57-1.27-2.32-1.58-.76-.31-1.52-.47-2.29-.47-1.01,0-1.93.28-2.75.85-.83.56-1.49,1.34-1.98,2.34-.49,1-.74,2.17-.74,3.51,0,2.09.46,3.73,1.37,4.91.91,1.19,2.17,1.78,3.78,1.78Z"/>
        <path class="cls-1" d="M245.26,306.34c-1.54,0-2.96-.36-4.27-1.08-1.31-.72-2.36-1.76-3.17-3.13-.8-1.37-1.21-3.01-1.21-4.93s.4-3.64,1.21-5c.8-1.37,1.86-2.41,3.17-3.13,1.31-.72,2.73-1.08,4.27-1.08s2.96.36,4.27,1.08c1.31.72,2.36,1.76,3.17,3.13.8,1.37,1.21,3.04,1.21,5s-.4,3.56-1.21,4.93c-.8,1.37-1.86,2.41-3.17,3.13-1.31.72-2.73,1.08-4.27,1.08ZM245.26,303.89c1.13,0,2.11-.28,2.95-.85.84-.56,1.49-1.35,1.94-2.36.46-1.01.68-2.17.68-3.49s-.23-2.53-.68-3.55c-.46-1.02-1.1-1.81-1.94-2.38-.84-.56-1.82-.85-2.95-.85s-2.11.28-2.93.85c-.83.56-1.48,1.36-1.94,2.38-.47,1.02-.7,2.2-.7,3.55s.23,2.48.7,3.49,1.12,1.79,1.94,2.36c.83.56,1.81.85,2.93.85Z"/>
        <path class="cls-1" d="M261.32,305.9v-17.5h2.45l.25,4.14h.11c.91-1.42,2.04-2.53,3.38-3.35,1.34-.82,2.82-1.22,4.43-1.22.65,0,1.25.05,1.82.16.56.11,1.11.29,1.64.56l-.68,2.56c-.6-.22-1.12-.37-1.55-.47-.43-.1-1-.14-1.69-.14-1.32,0-2.59.38-3.8,1.13-1.21.76-2.35,2.05-3.4,3.87v10.26h-2.95Z"/>
        <path class="cls-1" d="M304.05,305.9v-23.62h14.51v2.52h-11.48v7.99h9.72v2.52h-9.72v10.58h-3.02Z"/>
        <path class="cls-1" d="M329.72,306.34c-2.09,0-3.62-.6-4.61-1.8-.98-1.2-1.48-2.95-1.48-5.26v-10.87h2.99v10.48c0,1.66.31,2.89.92,3.69.61.8,1.65,1.21,3.11,1.21,1.01,0,1.93-.26,2.75-.77.83-.52,1.72-1.34,2.68-2.47v-12.13h2.95v17.5h-2.41l-.25-3.06h-.14c-.89,1.01-1.86,1.84-2.92,2.5-1.06.66-2.26.99-3.6.99Z"/>
        <path class="cls-1" d="M357.08,306.34c-1.85,0-3.27-.53-4.25-1.6-.98-1.07-1.48-2.63-1.48-4.7v-17.35h-5.98v-2.41h8.93v19.98c0,1.27.31,2.2.94,2.77.62.58,1.45.86,2.48.86.5,0,1.02-.07,1.55-.2s1.12-.34,1.76-.63l.76,2.23c-.79.29-1.54.54-2.23.74-.7.2-1.52.31-2.48.31Z"/>
        <path class="cls-1" d="M378.68,306.34c-1.85,0-3.27-.53-4.25-1.6-.98-1.07-1.48-2.63-1.48-4.7v-17.35h-5.98v-2.41h8.93v19.98c0,1.27.31,2.2.94,2.77.62.58,1.45.86,2.48.86.5,0,1.02-.07,1.55-.2s1.12-.34,1.76-.63l.76,2.23c-.79.29-1.54.54-2.23.74-.7.2-1.52.31-2.48.31Z"/>
        <path class="cls-1" d="M396.82,306.34c-1.7,0-3.3-.28-4.79-.83-1.49-.55-2.76-1.19-3.82-1.91l1.37-1.94c1.01.72,2.12,1.3,3.35,1.73,1.22.43,2.64.65,4.25.65,1.49,0,2.6-.28,3.33-.83.73-.55,1.1-1.19,1.1-1.91,0-.33-.07-.65-.2-.94-.13-.29-.38-.56-.76-.83-.37-.26-.92-.52-1.64-.76-.72-.24-1.68-.48-2.88-.72-2.28-.48-3.99-1.13-5.13-1.94-1.14-.82-1.71-1.87-1.71-3.17,0-1.42.61-2.6,1.84-3.55s3.04-1.42,5.44-1.42c1.34,0,2.64.22,3.89.67s2.3.97,3.17,1.57l-1.44,1.91c-.79-.58-1.69-1.03-2.7-1.35-1.01-.32-2.06-.49-3.17-.49-1.01,0-1.81.11-2.39.34-.59.23-1.01.53-1.26.92-.25.38-.38.8-.38,1.26,0,.74.4,1.33,1.21,1.75.8.42,2.09.81,3.87,1.17,1.94.41,3.44.86,4.48,1.37,1.04.5,1.77,1.08,2.16,1.73.4.65.59,1.42.59,2.3,0,.96-.3,1.83-.9,2.61-.6.78-1.48,1.41-2.63,1.89s-2.57.72-4.25.72Z"/>
        <path class="cls-1" d="M421.45,306.34c-1.7,0-3.05-.31-4.03-.92-.98-.61-1.69-1.46-2.11-2.54-.42-1.08-.63-2.34-.63-3.78v-8.28h-4.93v-2.23l5.04-.18.39-5.62h2.45v5.62h8.6v2.41h-8.6v8.32c0,1.03.13,1.91.39,2.63.26.72.72,1.26,1.37,1.62.65.36,1.54.54,2.66.54.84,0,1.6-.07,2.27-.22.67-.14,1.32-.34,1.94-.58l.65,2.16c-.79.29-1.62.54-2.5.74-.88.2-1.87.31-2.97.31Z"/>
        <path class="cls-1" d="M437.72,306.34c-1.08,0-2.08-.2-2.99-.59-.91-.4-1.63-.97-2.16-1.71-.53-.74-.79-1.63-.79-2.66,0-1.97.98-3.46,2.95-4.48,1.97-1.02,5.21-1.71,9.72-2.07-.02-.79-.19-1.52-.49-2.2-.3-.67-.79-1.21-1.46-1.6-.67-.4-1.57-.59-2.7-.59-.74,0-1.48.1-2.21.31s-1.43.47-2.09.79-1.27.65-1.82.99l-1.15-2.02c.58-.38,1.28-.77,2.11-1.17.83-.4,1.72-.72,2.68-.97.96-.25,1.96-.38,2.99-.38,1.61,0,2.93.3,3.98.9,1.04.6,1.82,1.43,2.34,2.5.52,1.07.78,2.33.78,3.8v10.73h-2.41l-.25-2.38h-.11c-.96.77-2.04,1.43-3.24,1.98-1.2.55-2.43.83-3.67.83ZM438.51,303.96c1.01,0,2-.23,2.99-.68s1.97-1.09,2.95-1.91v-4.61c-2.5.22-4.46.52-5.88.9-1.43.38-2.44.87-3.03,1.46-.59.59-.88,1.27-.88,2.03,0,.65.18,1.18.54,1.6.36.42.83.73,1.42.92.59.19,1.22.29,1.89.29Z"/>
        <path class="cls-1" d="M462.92,306.34c-1.82,0-3.46-.36-4.91-1.08-1.45-.72-2.59-1.76-3.42-3.13s-1.24-3.01-1.24-4.93.44-3.64,1.33-5c.89-1.37,2.07-2.41,3.54-3.13,1.48-.72,3.1-1.08,4.88-1.08,1.44,0,2.68.25,3.73.76,1.04.5,1.93,1.1,2.64,1.8l-1.47,1.91c-.72-.62-1.46-1.12-2.23-1.48-.77-.36-1.62-.54-2.56-.54-1.34,0-2.53.28-3.56.85-1.03.56-1.83,1.36-2.39,2.38-.56,1.02-.85,2.2-.85,3.55s.28,2.48.83,3.49c.55,1.01,1.34,1.79,2.36,2.36,1.02.56,2.2.85,3.54.85,1.08,0,2.07-.22,2.97-.65s1.71-.95,2.43-1.55l1.33,1.91c-.96.86-2.03,1.54-3.22,2.02-1.19.48-2.43.72-3.72.72Z"/>
        <path class="cls-1" d="M475.88,305.9v-25.63h2.95v17.35h.14l9.43-9.22h3.38l-12.96,12.74v4.75h-2.95ZM489.41,305.9l-6.84-9.32,1.8-1.91,8.35,11.23h-3.31Z"/>
      </g>
    </g>
  </g>
</svg>